# xmcd
#
# Track frame offsets: 
#        150
#        28839
#        48995
#        73152
#        89967
#        106461
#        127155
#        148046
#        171696
#        192299
#        213696
#        245088
#
# Disc length: 3475 seconds
#
# Revision: 0
# Processed by: cddbd v1.5.2PL0 Copyright (c) Steve Scherf et al.
# Submitted via: ExactAudioCopy v0.99pb5
#
DISCID=ce0d910c
DTITLE=Catfish Soup - Soup From A Stone
DYEAR=1996
DGENRE=Funk/Groove
TTITLE0=Dry Bones
TTITLE1=Peace Funk
TTITLE2=Sally hayes
TTITLE3=Sublime
TTITLE4=Asher's Party Funk Jam
TTITLE5=The Government Song
TTITLE6=The Seattle Shuffle
TTITLE7=When...
TTITLE8=Escape
TTITLE9=Setting Sun
TTITLE10=Stormy Monday
TTITLE11=Lay Down Your Arms
EXTD=
EXTT0=
EXTT1=
EXTT2=
EXTT3=
EXTT4=
EXTT5=
EXTT6=
EXTT7=
EXTT8=
EXTT9=
EXTT10=
EXTT11=
PLAYORDER=
